HIERARCHY
ROOT Pelvis
{
	OFFSET 0.000000 0.000000 0.000000
	CHANNELS 6 Xposition Yposition Zposition Xrotation Yrotation Zrotation
	JOINT LeftUpLeg_virtual
	{
		OFFSET 0.000000 0.000000 0.000000
		CHANNELS 3 Xrotation Yrotation Zrotation
		JOINT LeftUpLeg
		{
			OFFSET 18.735201 -5.666702 -4.541200
			CHANNELS 3 Xrotation Yrotation Zrotation
			JOINT LeftLeg
			{
				OFFSET -0.021200 -31.938179 0.493100
				CHANNELS 3 Xrotation Yrotation Zrotation
				JOINT LeftFoot
				{
					OFFSET 0.021200 -31.938179 -4.336299
					CHANNELS 3 Xrotation Yrotation Zrotation
					JOINT LeftToeBase
					{
						OFFSET 0.943001 -26.722000 15.023500
						CHANNELS 3 Xrotation Yrotation Zrotation
						End Site
						{
							OFFSET 0 0 0
						}
					}
				}
			}
		}
	}
	JOINT RightUpLeg_virtual
	{
		OFFSET 0.000000 0.000000 0.000000
		CHANNELS 3 Xrotation Yrotation Zrotation
		JOINT RightUpLeg
		{
			OFFSET -18.735201 -5.666702 -4.541200
			CHANNELS 3 Xrotation Yrotation Zrotation
			JOINT RightLeg
			{
				OFFSET 0.018946 -31.938133 0.493100
				CHANNELS 3 Xrotation Yrotation Zrotation
				JOINT RightFoot
				{
					OFFSET -0.018946 -31.938126 -4.336299
					CHANNELS 3 Xrotation Yrotation Zrotation
					JOINT RightToeBase
					{
						OFFSET -0.943001 -26.722004 15.023500
						CHANNELS 3 Xrotation Yrotation Zrotation
						End Site
						{
							OFFSET 0 0 0
						}
					}
				}
			}
		}
	}
	JOINT Hips_virtual
	{
		OFFSET 0.000000 0.000000 0.000000
		CHANNELS 3 Xrotation Yrotation Zrotation
		JOINT Hips
		{
			OFFSET -0.000000 -0.000000 -0.000000
			CHANNELS 3 Xrotation Yrotation Zrotation
			JOINT Spine
			{
				OFFSET 0.000000 10.199997 -0.299500
				CHANNELS 3 Xrotation Yrotation Zrotation
				JOINT Spine1
				{
					OFFSET 0.000000 11.900002 -1.516600
					CHANNELS 3 Xrotation Yrotation Zrotation
					JOINT Spine2
					{
						OFFSET 0.000000 13.600006 -2.842500
						CHANNELS 3 Xrotation Yrotation Zrotation
						JOINT Neck_virtual
						{
							OFFSET 0.000000 0.000000 0.000000
							CHANNELS 3 Xrotation Yrotation Zrotation
							JOINT Neck
							{
								OFFSET 0.000000 9.624100 -2.890100
								CHANNELS 3 Xrotation Yrotation Zrotation
								JOINT Head
								{
									OFFSET 0.000000 14.068802 -1.351900
									CHANNELS 3 Xrotation Yrotation Zrotation
									End Site
									{
										OFFSET 0 0 0
									}
								}
							}
						}
						JOINT LeftShoulder_virtual
						{
							OFFSET 0.000000 0.000000 0.000000
							CHANNELS 3 Xrotation Yrotation Zrotation
							JOINT LeftShoulder
							{
								OFFSET 15.263000 10.923401 -0.547700
								CHANNELS 3 Xrotation Yrotation Zrotation
								JOINT LeftArm
								{
									OFFSET 25.438599 -2.830597 -13.032500
									CHANNELS 3 Xrotation Yrotation Zrotation
									JOINT LeftForeArm
									{
										OFFSET 29.960503 0.000000 0.000000
										CHANNELS 3 Xrotation Yrotation Zrotation
										JOINT LeftHand
										{
											OFFSET 27.849251 0.000000 0.000000
											CHANNELS 3 Xrotation Yrotation Zrotation
											End Site
											{
												OFFSET 0 0 0
											}
										}
									}
								}
							}
						}
						JOINT RightShoulder_virtual
						{
							OFFSET 0.000000 0.000000 0.000000
							CHANNELS 3 Xrotation Yrotation Zrotation
							JOINT RightShoulder
							{
								OFFSET -15.263000 10.923401 -0.547700
								CHANNELS 3 Xrotation Yrotation Zrotation
								JOINT RightArm
								{
									OFFSET -25.438599 -2.830597 -13.032500
									CHANNELS 3 Xrotation Yrotation Zrotation
									JOINT RightForeArm
									{
										OFFSET -29.960503 0.000000 0.000000
										CHANNELS 3 Xrotation Yrotation Zrotation
										JOINT RightHand
										{
											OFFSET -27.849251 0.000000 0.000000
											CHANNELS 3 Xrotation Yrotation Zrotation
											End Site
											{
												OFFSET 0 0 0
											}
										}
									}
								}
							}
						}
					}
				}
			}
		}
	}
}
MOTION
Frames: 6
Frame Time: 0.03333333
3.986027 59.528908 119.693588 0.000000 0.000000 0.000000 24.351919 -55.578243 31.393435 -58.236146 -48.289424 39.729725 81.889303 -0.239243 -41.597471 -6.621401 -1.937873 -28.892277 0.000000 0.000000 0.000000 24.351919 -55.578243 31.393435 -91.042720 38.137232 -21.787113 110.403000 16.095010 2.155735 -26.338944 -7.947997 21.350369 0.000000 0.000000 0.000000 24.351919 -55.578243 31.393435 -0.000001 0.000001 0.000000 35.896735 -1.143621 -11.561232 -1.378882 5.069765 -1.074926 0.000000 0.000000 0.000000 2.611457 4.724526 -0.949073 -2.705667 4.242953 -1.265279 0.000000 0.000000 0.000000 2.611457 4.724526 -0.949073 5.150300 -18.900477 -1.489419 -27.251726 24.057087 -30.897867 -92.443721 -80.894028 -81.379259 0.000000 0.000000 0.000000 2.611457 4.724526 -0.949073 -0.410183 26.798790 18.403745 -55.132587 -2.548280 13.757415 -32.600500 59.077045 28.544962 0.000000 0.000000 0.000000 
4.463406 59.335480 121.130615 0.000000 0.000000 0.000000 28.430765 -56.659442 34.193368 -58.128899 -48.618157 42.608520 84.766794 -2.432416 -43.219296 -9.130885 -1.903853 -27.567591 0.000000 0.000000 0.000000 28.430765 -56.659442 34.193368 -92.531892 38.287312 -20.986338 107.903363 15.761075 1.931548 -24.588300 -7.191556 23.321841 0.000000 0.000000 0.000000 28.430765 -56.659442 34.193368 -0.000001 0.000002 0.000001 35.756317 -1.830558 -13.973956 -2.211905 5.602688 -0.808047 0.000000 0.000000 0.000000 1.905225 5.369619 -0.299753 -2.519093 4.412012 -1.283921 0.000000 0.000000 0.000000 1.905225 5.369619 -0.299753 6.664362 -18.263926 -2.232492 -27.495671 17.707793 -32.135115 -65.949247 -80.866619 -55.485195 0.000000 0.000000 0.000000 1.905225 5.369619 -0.299753 0.392898 28.446676 18.972630 -54.816899 -0.739640 15.725262 -32.159543 59.955694 28.372000 0.000000 0.000000 0.000000 
4.640938 59.959007 122.489029 0.000000 0.000000 0.000000 29.933970 -56.743757 35.358684 -58.348257 -48.643716 42.034623 86.061558 -2.662319 -44.369308 -10.859588 -1.743954 -26.338408 0.000000 0.000000 0.000000 29.933970 -56.743757 35.358684 -90.764540 37.661400 -22.804646 105.529681 14.448300 1.210645 -24.230549 -5.644722 24.977638 0.000000 0.000000 0.000000 29.933970 -56.743757 35.358684 0.000000 0.000000 0.000000 34.196790 -2.330176 -16.033391 -1.873215 5.586110 -0.555353 0.000000 0.000000 0.000000 2.077609 5.368877 0.484100 -2.556040 4.476718 -1.187769 0.000000 0.000000 0.000000 2.077609 5.368877 0.484100 6.965545 -19.294374 -2.102315 -28.134869 15.072539 -32.000526 -44.720913 -79.216916 -34.966020 0.000000 0.000000 0.000000 2.077609 5.368877 0.484100 0.326741 28.032097 19.689723 -54.046071 0.106957 18.102745 -34.543128 63.125606 31.386413 0.000000 0.000000 0.000000 
4.651062 60.949196 123.919701 0.000000 0.000000 0.000000 29.729310 -55.988304 33.978996 -59.040756 -49.350439 40.997247 86.627972 -2.675442 -45.330367 -11.903220 -2.043268 -24.643159 0.000000 0.000000 0.000000 29.729310 -55.988304 33.978996 -86.192199 35.479035 -26.284067 102.817460 14.819502 1.167150 -25.210809 -6.009589 25.244458 0.000000 0.000000 0.000000 29.729310 -55.988304 33.978996 0.000000 0.000000 -0.000001 31.999023 -2.054290 -15.182438 -0.977215 5.239299 -0.628020 0.000000 0.000000 0.000000 2.798398 5.021162 0.200405 -2.752664 4.457978 -1.058498 0.000000 0.000000 0.000000 2.798398 5.021162 0.200405 5.671746 -19.772173 -2.223025 -28.539450 13.287415 -31.982149 -30.990689 -76.716357 -22.029032 0.000000 0.000000 0.000000 2.798398 5.021162 0.200405 -0.985393 26.476614 20.357881 -53.163720 -2.091469 19.482312 -39.765884 67.368061 37.378845 0.000000 0.000000 0.000000 
4.391729 62.567200 125.186264 0.000000 0.000000 0.000000 29.571471 -55.677779 32.815367 -59.543588 -47.348453 39.379947 85.167166 -2.846218 -44.782262 -12.891147 -1.460839 -22.294117 0.000000 0.000000 0.000000 29.571471 -55.677779 32.815367 -81.531271 32.438074 -28.215621 99.343032 14.122441 0.658452 -26.003311 -6.405456 25.581411 0.000000 0.000000 0.000000 29.571471 -55.677779 32.815367 -0.000001 0.000000 -0.000001 28.800381 -1.771814 -14.866873 0.139937 5.044806 -0.799695 0.000000 0.000000 0.000000 3.774941 4.897881 0.244584 -3.101363 4.393864 -0.901192 0.000000 0.000000 0.000000 3.774941 4.897881 0.244584 3.779291 -19.299873 -2.558625 -28.499598 10.733454 -33.466653 -20.073059 -72.353819 -11.946476 0.000000 0.000000 0.000000 3.774941 4.897881 0.244584 -2.283485 24.495657 20.457914 -52.061983 -5.949163 20.419474 -49.271175 71.817240 47.679812 0.000000 0.000000 0.000000 
3.950747 64.627899 126.313591 0.000000 0.000000 0.000000 28.827151 -56.003077 31.823883 -56.626592 -45.907809 38.679542 82.794706 -1.910567 -45.807654 -13.882731 -0.583649 -20.341391 0.000000 0.000000 0.000000 28.827151 -56.003077 31.823883 -76.751901 29.633507 -29.720264 95.274131 13.579244 0.343256 -26.269037 -6.507593 25.521343 0.000000 0.000000 0.000000 28.827151 -56.003077 31.823883 0.000001 0.000000 0.000000 25.174301 -1.661832 -15.718167 1.412936 5.004450 -0.891784 0.000000 0.000000 0.000000 4.845459 4.923197 0.676620 -3.452017 4.435368 -0.682254 0.000000 0.000000 0.000000 4.845459 4.923197 0.676620 1.983174 -18.720825 -2.854409 -28.980066 7.871508 -34.787465 -12.649604 -65.888479 -5.439479 0.000000 0.000000 0.000000 4.845459 4.923197 0.676620 -3.426704 22.575560 19.612731 -51.300540 -9.863257 20.734878 -61.127762 74.900749 60.156488 0.000000 0.000000 0.000000 
